<svg xmlns="http://www.w3.org/2000/svg" width="32" height="32" viewBox="0 0 32 32">
    <g fill="none" fill-rule="evenodd" opacity=".8">
        <g fill="#FFF">
            <g>
                <g>
                    <path d="M15.099 19.54c.49 0 .888.397.888.888 0 .49-.398.888-.888.888H2.665c-.49 0-.889-.398-.889-.888s.398-.889.889-.889h12.434zm.888-15.987c.977 0 1.776.799 1.776 1.776v10.658c0 .977-.8 1.776-1.776 1.776H1.777c-.978 0-1.777-.8-1.777-1.776V5.329c0-.977.8-1.776 1.776-1.776zm0 1.776H1.777v10.658h14.21V5.329zm-7.105 6.217c1.5 0 4.44.8 4.44 2.656v.897H4.442v-.897c0-1.856 2.94-2.656 4.44-2.656zm0-5.329c1.225 0 2.22.995 2.22 2.22 0 1.226-.995 2.22-2.22 2.22-1.226 0-2.22-.994-2.22-2.22 0-1.225.994-2.22 2.22-2.22zM15.099 0c.49 0 .888.398.888.888s-.398.888-.888.888H2.665c-.49 0-.889-.398-.889-.888S2.174 0 2.665 0h12.434z" transform="translate(-28 -204) translate(28 204) translate(7 5)"/>
                </g>
            </g>
        </g>
    </g>
</svg>
