<svg xmlns="http://www.w3.org/2000/svg" width="32" height="32" viewBox="0 0 32 32">
    <g fill="none" fill-rule="evenodd" opacity=".8">
        <g fill="#FFF">
            <g>
                <path d="M18.576 7.826C20.941 8.168 24 9.274 24 11.143v2.571h-3.428v-2.571c0-1.44-.822-2.52-1.996-3.317zm-13.152 0c-1.174.797-1.996 1.877-1.996 3.317v2.571H0v-2.571c0-1.869 3.06-2.975 5.424-3.317zm6.58-.112c2.288 0 6.855 1.149 6.855 3.429v2.571H5.149v-2.571c0-2.28 4.567-3.429 6.855-3.429zm0 1.715c-2.314 0-4.97 1.105-5.142 1.722V12h10.283v-.857c-.171-.609-2.828-1.714-5.141-1.714zM17.145 0c1.894 0 3.428 1.534 3.428 3.429 0 1.894-1.534 3.428-3.428 3.428-.403 0-.78-.086-1.14-.206.712-.882 1.14-2.005 1.14-3.222 0-1.218-.428-2.34-1.14-3.223.36-.12.737-.206 1.14-.206zM6.855 0c.403 0 .78.086 1.14.206-.712.883-1.14 2.005-1.14 3.223 0 1.217.428 2.34 1.14 3.222-.36.12-.737.206-1.14.206-1.894 0-3.428-1.534-3.428-3.428C3.427 1.534 4.961 0 6.855 0zm5.149 0c1.893 0 3.427 1.534 3.427 3.429 0 1.894-1.534 3.428-3.427 3.428-1.894 0-3.428-1.534-3.428-3.428C8.576 1.534 10.11 0 12.004 0zm0 1.714c-.943 0-1.714.772-1.714 1.715 0 .942.771 1.714 1.714 1.714.942 0 1.714-.772 1.714-1.714 0-.943-.772-1.715-1.714-1.715z" transform="translate(-28 -260) translate(28 260) translate(4 9)"/>
            </g>
        </g>
    </g>
</svg>
