<svg xmlns="http://www.w3.org/2000/svg" width="16" height="16" viewBox="0 0 16 16">
    <g fill="none" fill-rule="evenodd">
        <g>
            <g>
                <g transform="translate(-1410 -152) translate(974 144) translate(436 8)">
                    <path d="M0 0L16 0 16 16 0 16z"/>
                    <circle cx="8" cy="8" r="8" fill="#BABAC3"/>
                    <path fill="#FFF" d="M11.823 4.184c-.237-.237-.62-.237-.856 0L8 7.144 5.033 4.177c-.237-.236-.619-.236-.856 0-.236.237-.236.62 0 .856L7.144 8l-2.967 2.967c-.236.237-.236.619 0 .856.237.236.62.236.856 0L8 8.856l2.967 2.967c.237.236.619.236.856 0 .236-.237.236-.62 0-.856L8.856 8l2.967-2.967c.23-.23.23-.619 0-.85z"/>
                </g>
            </g>
        </g>
    </g>
</svg>
