<svg xmlns="http://www.w3.org/2000/svg" width="24" height="24" viewBox="0 0 24 24">
    <defs>
        <filter id="ueyyoz5sma">
            <feColorMatrix in="SourceGraphic" values="0 0 0 0 0.117647 0 0 0 0 0.117647 0 0 0 0 0.235294 0 0 0 1.000000 0"/>
        </filter>
    </defs>
    <g fill="none" fill-rule="evenodd">
        <g>
            <g>
                <g filter="url(#ueyyoz5sma)" transform="translate(-957 -24) translate(933) translate(24 24)">
                    <path d="M0 0L24 0 24 24 0 24z"/>
                    <path fill="#000" fill-rule="nonzero" d="M18.3 5.71c-.39-.39-1.02-.39-1.41 0L12 10.59 7.11 5.7c-.39-.39-1.02-.39-1.41 0-.39.39-.39 1.02 0 1.41L10.59 12 5.7 16.89c-.39.39-.39 1.02 0 1.41.39.39 1.02.39 1.41 0L12 13.41l4.89 4.89c.39.39 1.02.39 1.41 0 .39-.39.39-1.02 0-1.41L13.41 12l4.89-4.89c.38-.38.38-1.02 0-1.4z"/>
                </g>
            </g>
        </g>
    </g>
</svg>
