<svg xmlns="http://www.w3.org/2000/svg" width="24" height="24" viewBox="0 0 24 24">
    <g fill="none" fill-rule="evenodd">
        <g fill="#1E1E3C">
            <g>
                <g>
                    <path d="M3.75 18c.828 0 1.5.672 1.5 1.5v3c0 .828-.672 1.5-1.5 1.5s-1.5-.672-1.5-1.5v-3c0-.828.672-1.5 1.5-1.5zm10.5-9.75C16.321 8.25 18 9.929 18 12c0 1.537-.925 2.859-2.249 3.438L15.75 22.5c0 .828-.672 1.5-1.5 1.5s-1.5-.672-1.5-1.5v-7.062c-1.324-.579-2.25-1.9-2.25-3.438 0-2.071 1.679-3.75 3.75-3.75zM3.75 0c.828 0 1.5.672 1.5 1.5l.001 7.062C6.575 9.142 7.5 10.462 7.5 12c0 2.071-1.679 3.75-3.75 3.75C1.679 15.75 0 14.071 0 12c0-1.538.926-2.86 2.25-3.438V1.5c0-.828.672-1.5 1.5-1.5zm10.5 0c.828 0 1.5.672 1.5 1.5v3c0 .828-.672 1.5-1.5 1.5s-1.5-.672-1.5-1.5v-3c0-.828.672-1.5 1.5-1.5z" transform="translate(-957 -80) translate(933) translate(24 80) translate(3)"/>
                </g>
            </g>
        </g>
    </g>
</svg>
