<svg xmlns="http://www.w3.org/2000/svg" width="16" height="16" viewBox="0 0 16 16">
    <g fill="none" fill-rule="evenodd">
        <g fill="#0082E6">
            <g>
                <g>
                    <path d="M2.5 12c.552 0 1 .448 1 1v2c0 .552-.448 1-1 1s-1-.448-1-1v-2c0-.552.448-1 1-1zm7-6.5C10.88 5.5 12 6.62 12 8c0 1.025-.617 1.906-1.5 2.292V15c0 .552-.448 1-1 1s-1-.448-1-1v-4.708C7.617 9.906 7 9.025 7 8c0-1.38 1.12-2.5 2.5-2.5zM2.5 0c.552 0 1 .448 1 1v4.708C4.384 6.094 5 6.975 5 8c0 1.38-1.12 2.5-2.5 2.5S0 9.38 0 8c0-1.025.617-1.906 1.5-2.292V1c0-.552.448-1 1-1zm7 0c.552 0 1 .448 1 1v2c0 .552-.448 1-1 1s-1-.448-1-1V1c0-.552.448-1 1-1z" transform="translate(-400 -124) translate(296 112) translate(104 12) translate(2)"/>
                </g>
            </g>
        </g>
    </g>
</svg>
