<svg xmlns="http://www.w3.org/2000/svg" width="56" height="56" viewBox="0 0 56 56">
    <g fill="none" fill-rule="evenodd">
        <g>
            <g>
                <path d="M0 0L56 0 56 56 0 56z" transform="translate(-508 -278) translate(508 278)"/>
                <path fill="#FFF" d="M23.333 38.5l14-10.5-14-10.5v21zM28 4.667C15.12 4.667 4.667 15.12 4.667 28 4.667 40.88 15.12 51.333 28 51.333c12.88 0 23.333-10.453 23.333-23.333C51.333 15.12 40.88 4.667 28 4.667zm0 42C17.71 46.667 9.333 38.29 9.333 28 9.333 17.71 17.71 9.333 28 9.333c10.29 0 18.667 8.377 18.667 18.667 0 10.29-8.377 18.667-18.667 18.667z" transform="translate(-508 -278) translate(508 278)"/>
            </g>
        </g>
    </g>
</svg>
