<svg xmlns="http://www.w3.org/2000/svg" width="24" height="24" viewBox="0 0 24 24">
    <g fill="none" fill-rule="evenodd" opacity=".7">
        <g>
            <g>
                <path d="M0 0L24 0 24 24 0 24z" transform="translate(-178 -2827) translate(178 2827)"/>
                <path fill="#757587" d="M16.5 14h-.79l-.28-.27c1.2-1.4 1.82-3.31 1.48-5.34-.47-2.78-2.79-5-5.59-5.34-4.23-.52-7.78 3.04-7.27 7.27.34 2.8 2.56 5.12 5.34 5.59 2.03.34 3.94-.28 5.34-1.48l.27.28v.79l4.26 4.25c.41.41 1.07.41 1.48 0l.01-.01c.41-.41.41-1.07 0-1.48L16.5 14zm-6 0C8.01 14 6 11.99 6 9.5S8.01 5 10.5 5 15 7.01 15 9.5 12.99 14 10.5 14z" transform="translate(-178 -2827) translate(178 2827)"/>
            </g>
        </g>
    </g>
</svg>
