<svg xmlns="http://www.w3.org/2000/svg" width="32" height="32" viewBox="0 0 32 32">
    <g fill="none" fill-rule="evenodd" opacity=".8">
        <g fill="#FFF">
            <g>
                <path d="M18.333 0C19.25 0 20 .75 20 1.667v16.666C20 19.25 19.25 20 18.333 20H1.667C.75 20 0 19.25 0 18.333V1.667C0 .75.75 0 1.667 0zm0 17.22h-4.489v1.113h4.49V17.22zm-12.06 0H1.667v1.113h4.606V17.22zm5.905 0H7.939v1.113h4.239V17.22zm6.155-2.97h-4.489v1.303h4.49V14.25zm-12.06 0H1.667v1.303h4.606V14.25zm5.905 0H7.939v1.303h4.239V14.25zM6.272 1.667H1.667v10.916h4.606V1.667zm5.905 0H7.94v10.916h4.239V1.667zm6.156 0h-4.489v10.916h4.49V1.667zM10.06 3.209c.684 0 1.24.556 1.24 1.24 0 .684-.556 1.24-1.24 1.24-.685 0-1.24-.556-1.24-1.24 0-.684.555-1.24 1.24-1.24zm-6.099 0c.684 0 1.24.556 1.24 1.24 0 .684-.556 1.24-1.24 1.24-.684 0-1.24-.556-1.24-1.24 0-.684.556-1.24 1.24-1.24zm12.132 0c.684 0 1.24.556 1.24 1.24 0 .684-.556 1.24-1.24 1.24-.685 0-1.24-.556-1.24-1.24 0-.684.555-1.24 1.24-1.24z" transform="translate(-28 -316) translate(28 316) translate(6 6)"/>
            </g>
        </g>
    </g>
</svg>
