<svg xmlns="http://www.w3.org/2000/svg" width="32" height="32" viewBox="0 0 32 32">
    <g fill="none" fill-rule="evenodd">
        <g fill="#FFF">
            <g>
                <path d="M16.474 10.267c3.422 0 6.206 2.784 6.206 6.206 0 3.422-2.784 6.208-6.206 6.208-3.423 0-6.208-2.786-6.208-6.208s2.785-6.206 6.208-6.206zm0 1.68c-2.497 0-4.527 2.03-4.527 4.526S13.977 21 16.474 21C18.969 21 21 18.969 21 16.473c0-2.495-2.031-4.526-4.526-4.526zm0 1.12c.462 0 .84.377.84.84v1.726h1.726c.463 0 .84.378.84.84 0 .463-.377.84-.84.84h-1.726v1.727c0 .463-.378.84-.84.84-.463 0-.84-.377-.84-.84v-1.726h-1.728c-.463 0-.84-.378-.84-.84 0-.463.377-.841.84-.841h1.728v-1.726c0-.463.377-.84.84-.84zM13.44 0c1.493 0 2.706 1.214 2.706 2.707V8.39c0 .463-.376.841-.84.841-.462 0-.84-.378-.84-.84V2.706c0-.566-.46-1.027-1.026-1.027H2.706c-.565 0-1.026.461-1.026 1.027v14.467c0 .566.461 1.026 1.026 1.026h6.012c.463 0 .84.377.84.84 0 .463-.377.84-.84.84H2.706C1.214 19.88 0 18.666 0 17.174V2.707C0 1.215 1.214 0 2.706 0H13.44zM8.585 11.2c.413 0 .75.377.75.84 0 .463-.337.84-.75.84H4.12c-.413 0-.749-.377-.749-.84 0-.463.336-.84.75-.84h4.465zm3.248-3.733c.413 0 .75.376.75.84 0 .463-.337.84-.75.84H4.12c-.413 0-.749-.377-.749-.84 0-.464.336-.84.75-.84h7.713zm0-3.734c.413 0 .75.378.75.84 0 .463-.337.84-.75.84H4.12c-.413 0-.749-.377-.749-.84 0-.462.336-.84.75-.84h7.713z" transform="translate(-28 -92) translate(28 92) translate(6 5)"/>
            </g>
        </g>
    </g>
</svg>
