<svg xmlns="http://www.w3.org/2000/svg" width="32" height="32" viewBox="0 0 32 32">
    <g fill="none" fill-rule="evenodd" opacity=".8">
        <g fill="#FFF">
            <g>
                <path d="M16.474 10.267c1.644 0 3.136.647 4.247 1.693l1.327-1.387c.335-.348.89-.36 1.238-.026.349.333.36.887.027 1.236l-1.491 1.556c.542.922.858 1.99.858 3.134 0 3.423-2.784 6.207-6.206 6.207-3.422 0-6.208-2.784-6.208-6.207 0-3.422 2.786-6.206 6.208-6.206zm0 1.68c-2.497 0-4.527 2.031-4.527 4.526 0 2.497 2.03 4.527 4.527 4.527C18.969 21 21 18.97 21 16.473c0-.66-.15-1.284-.406-1.851l-3.815 3.985c-.165.173-.394.27-.632.27h-.032c-.25-.01-.483-.125-.642-.318l-2.415-2.922c-.307-.372-.255-.924.117-1.232.372-.308.924-.256 1.232.117l1.788 2.164 3.36-3.509c-.809-.757-1.888-1.23-3.081-1.23zM13.44 0c1.493 0 2.707 1.214 2.707 2.707v5.684c0 .463-.377.84-.84.84-.463 0-.84-.377-.84-.84V2.707c0-.567-.46-1.027-1.027-1.027H2.706c-.565 0-1.025.46-1.025 1.027v14.467c0 .566.46 1.026 1.025 1.026h6.012c.463 0 .84.377.84.84 0 .463-.377.84-.84.84H2.706C1.214 19.88 0 18.666 0 17.174V2.707C0 1.215 1.214 0 2.706 0zM8.586 11.2c.413 0 .749.377.749.84 0 .463-.336.84-.75.84H4.12c-.413 0-.75-.377-.75-.84 0-.463.337-.84.75-.84zm0-3.733c.413 0 .749.377.749.84 0 .463-.336.84-.75.84H4.12c-.413 0-.75-.377-.75-.84 0-.463.337-.84.75-.84zm3.396 0c.413 0 .749.377.749.84 0 .463-.336.84-.75.84h-.965c-.413 0-.75-.377-.75-.84 0-.463.337-.84.75-.84zM8.586 3.733c.413 0 .749.378.749.84 0 .463-.336.84-.75.84H4.12c-.413 0-.75-.377-.75-.84 0-.462.337-.84.75-.84zm3.396 0c.413 0 .749.378.749.84 0 .463-.336.84-.75.84h-.965c-.413 0-.75-.377-.75-.84 0-.462.337-.84.75-.84z" transform="translate(-28 -148) translate(28 148) translate(6 5)"/>
            </g>
        </g>
    </g>
</svg>
