<svg xmlns="http://www.w3.org/2000/svg" width="32" height="32" viewBox="0 0 32 32">
    <g fill="none" fill-rule="evenodd" opacity=".8">
        <g fill="#FFF">
            <g>
                <path d="M12.406 0c.58 0 1.096.388 1.257.944L14 2.094c.403.137.798.3 1.176.49l1.053-.579c.193-.105.41-.162.63-.162.35 0 .678.137.925.384l1.99 1.99c.408.409.5 1.048.222 1.555l-.579 1.053c.19.38.353.774.49 1.176l1.15.336c.556.16.944.677.944 1.256v2.814c0 .579-.388 1.095-.944 1.256l-1.15.336c-.137.403-.3.797-.49 1.177l.579 1.053c.278.507.186 1.145-.222 1.554l-1.99 1.99c-.247.248-.576.384-.925.384-.22 0-.437-.057-.63-.162l-1.053-.578c-.38.19-.774.353-1.176.49l-.336 1.15c-.16.555-.677.943-1.257.943H9.593c-.579 0-1.095-.388-1.257-.942L8 19.907c-.4-.137-.796-.3-1.177-.49l-1.053.578c-.192.105-.41.162-.63.162-.348 0-.677-.136-.924-.383l-1.99-1.99c-.41-.41-.5-1.05-.222-1.555l.578-1.053c-.19-.38-.353-.776-.489-1.177l-1.151-.336C.388 13.503 0 12.986 0 12.407V9.593c0-.579.388-1.095.943-1.256L2.094 8c.136-.4.3-.796.489-1.176l-.578-1.053c-.279-.507-.188-1.146.221-1.555l1.99-1.99c.248-.247.577-.384.926-.384.22 0 .437.057.63.162l1.052.579c.38-.19.776-.354 1.177-.49l.335-1.15C8.498.388 9.014 0 9.593 0h2.813zm-.464 1.928h-1.884l-.501 1.724-.521.142c-.607.166-1.193.408-1.74.722l-.468.27-1.577-.867-1.333 1.333.867 1.576-.27.469c-.314.546-.556 1.132-.722 1.739l-.142.52-1.723.502v1.884l1.723.501.142.521c.166.607.41 1.193.722 1.74l.27.468-.867 1.577 1.333 1.333 1.576-.867.47.27c.546.313 1.132.556 1.738.722l.522.142.501 1.723h1.884l.501-1.723.52-.142c.61-.166 1.194-.41 1.74-.722l.47-.27 1.575.867 1.333-1.333-.867-1.577.27-.469c.314-.546.556-1.132.722-1.739l.142-.52 1.724-.502v-1.884l-1.724-.501-.142-.52c-.166-.608-.408-1.194-.722-1.74l-.27-.47.867-1.575-1.333-1.333-1.576.867-.469-.27c-.546-.314-1.132-.556-1.739-.722l-.52-.142-.502-1.724zM11 5.69c2.928 0 5.31 2.382 5.31 5.31 0 2.928-2.382 5.312-5.31 5.312-2.929 0-5.311-2.384-5.311-5.311 0-2.93 2.382-5.311 5.31-5.311zm0 1.902c-1.88 0-3.409 1.53-3.409 3.409 0 1.879 1.53 3.408 3.409 3.408 1.879 0 3.408-1.53 3.408-3.408 0-1.88-1.529-3.409-3.408-3.409z" transform="translate(-28 -372) translate(28 372) translate(5 5)"/>
            </g>
        </g>
    </g>
</svg>
